<?xml version="1.0" encoding="utf-8"?>
<!-- Generator: Adobe Illustrator 24.1.2, SVG Export Plug-In . SVG Version: 6.00 Build 0)  -->
<svg version="1.1" id="Layer_1" xmlns="http://www.w3.org/2000/svg" xmlns:xlink="http://www.w3.org/1999/xlink" x="0px" y="0px"
	 viewBox="0 0 512 512" style="enable-background:new 0 0 512 512;" xml:space="preserve">
<path d="M434.2,77.8C386.6,30.2,323.3,4,256,4S125.4,30.2,77.8,77.8C30.2,125.4,4,188.7,4,256c0,67.3,26.2,130.6,73.8,178.2
	C125.4,481.8,188.7,508,256,508c67.3,0,130.6-26.2,178.2-73.8C481.8,386.6,508,323.3,508,256C508,188.7,481.8,125.4,434.2,77.8z
	 M418.6,418.6C375.2,462.1,317.4,486,256,486s-119.2-23.9-162.6-67.4C49.9,375.2,26,317.4,26,256c0-61.4,23.9-119.2,67.4-162.6
	C136.8,49.9,194.6,26,256,26s119.2,23.9,162.6,67.4C462.1,136.8,486,194.6,486,256S462.1,375.2,418.6,418.6z"/>
<path d="M256,64.2c-105.7,0-191.8,86-191.8,191.8s86,191.8,191.8,191.8s191.8-86,191.8-191.8S361.7,64.2,256,64.2z M256,425.8
	c-93.6,0-169.8-76.1-169.8-169.8S162.4,86.2,256,86.2S425.7,162.4,425.7,256S349.6,425.8,256,425.8z"/>
<path d="M320.5,286.1l51.9-50.6l-4.8-14.7l-71.8-10.4l-32.1-65h-15.5l-32.1,65l-71.8,10.4l-4.8,14.7l51.9,50.6l-12.3,71.5l12.5,9.1
	l64.2-33.8l64.2,33.8l12.5-9.1L320.5,286.1z M306.5,334.6L256,308.1l-50.5,26.5l9.6-56.2l-40.8-39.8l56.4-8.2l25.2-51.1l25.2,51.1
	l56.4,8.2l-40.8,39.8L306.5,334.6z"/>
</svg>
