<?xml version="1.0" encoding="utf-8"?>
<!-- Generator: Adobe Illustrator 24.1.2, SVG Export Plug-In . SVG Version: 6.00 Build 0)  -->
<svg version="1.1" id="Layer_1" xmlns="http://www.w3.org/2000/svg" xmlns:xlink="http://www.w3.org/1999/xlink" x="0px" y="0px"
	 viewBox="0 0 512 370" style="enable-background:new 0 0 512 370;" xml:space="preserve">
<path d="M510,263.9c-9-50.7-45-90.5-91.4-105c23.2-13.8,38.8-39.3,38.8-68.6c0-43.7-34.9-79.3-77.8-79.3s-77.8,35.6-77.8,79.3
	c0,29.2,15.6,54.8,38.8,68.6c-11,3.5-21.6,8.4-31.4,14.7c-17.6,11.3-32.4,26.6-43.1,44.7c-16.1-11.7-34.3-20.6-53.8-26
	c31.9-16.5,53.9-50.3,53.9-89.3c0-55.1-44-100-98.1-100c-54.1,0-98.1,44.9-98.1,100c0,38.9,21.9,72.8,53.9,89.3
	c-61.6,17-110,68.8-121.9,135.4c-1.7,9.8,0.9,19.8,7.3,27.4c6.3,7.5,15.5,11.9,25.2,11.9h267c9.7,0,18.9-4.3,25.2-11.9
	c6.4-7.6,9.1-17.6,7.3-27.4c-1.9-10.8-4.8-21.3-8.6-31.2H483c8.1,0,15.7-3.6,21-9.8C509.3,280.3,511.5,272,510,263.9z M318.5,90.3
	c0-34.5,27.4-62.6,61.1-62.6s61.1,28.1,61.1,62.6c0,34.5-27.4,62.6-61.1,62.6S318.5,124.8,318.5,90.3z M86.8,103.1
	c0-45.9,36.5-83.3,81.4-83.3c44.9,0,81.4,37.4,81.4,83.3c0,45.9-36.5,83.3-81.4,83.3C123.3,186.4,86.8,149,86.8,103.1z M314.1,344.4
	c-3.1,3.7-7.7,5.9-12.4,5.9h-267c-4.8,0-9.3-2.1-12.4-5.9c-3.2-3.8-4.5-8.8-3.7-13.8c13.1-73.9,76-127.6,149.6-127.6
	c73.6,0,136.5,53.6,149.6,127.6C318.6,335.5,317.3,340.6,314.1,344.4z M491.2,275.9c-2.1,2.5-5,3.9-8.2,3.9H318.3
	c-9.8-19.5-23.1-36.7-39-50.9c20.7-36.7,58.6-59.3,100.3-59.3c56,0,104,40.9,114,97.2C494.2,270.1,493.3,273.4,491.2,275.9z"/>
</svg>
