<?xml version="1.0" encoding="utf-8"?>
<!-- Generator: Adobe Illustrator 24.1.2, SVG Export Plug-In . SVG Version: 6.00 Build 0)  -->
<svg version="1.1" id="Layer_1" xmlns="http://www.w3.org/2000/svg" xmlns:xlink="http://www.w3.org/1999/xlink" x="0px" y="0px"
	 viewBox="0 0 618 618" style="enable-background:new 0 0 618 618;" xml:space="preserve">
<path d="M461.1,319.5c-37.7-0.1-73.9,15.4-99.7,42.9c-37.2-29.7-83.3-45.7-130.9-45.5h-0.4C173,317,119.9,339.2,80.6,379.6
	C40.7,420.4,18.9,476.2,19,536.7c0,3.3,1.3,6.5,3.6,8.9c2.3,2.3,5.5,3.7,8.9,3.6l327.6-0.6c0.7,0.9,1.5,1.6,2.2,2.5
	c43,45.5,111.4,56.2,166.2,25.9c54.8-30.3,82.2-93.8,66.6-154.4C578.4,361.9,523.7,319.5,461.1,319.5z M44.3,524.1
	c2.6-49,21.6-93.8,54.2-127.1c34.6-35.6,81.4-55.2,131.6-55.2h0.4c42-0.2,82.7,14,115.5,40.2c-27.6,42.7-29.5,97.2-4.7,141.6
	L44.3,524.1z M461.1,569.1c-62,0-112.3-50.3-112.3-112.3c0-62,50.3-112.3,112.3-112.3s112.3,50.3,112.3,112.3
	C573.4,518.8,523.1,569.1,461.1,569.1z"/>
<path d="M230.2,287.2c72.8,0,131.9-59.1,131.9-131.9c0-72.8-59.1-131.9-131.9-131.9S98.3,82.4,98.3,155.3
	C98.4,228.1,157.4,287.1,230.2,287.2z M230.2,48.3c59.1,0,106.9,47.9,106.9,106.9c0,59.1-47.9,106.9-106.9,106.9
	c-59.1,0-106.9-47.9-106.9-106.9C123.4,96.2,171.2,48.4,230.2,48.3z"/>
<g>
	<g>
		<path d="M478.6,460.2l28.6-28.6c4.4-4.4,4.4-11.5,0-15.9c-4.4-4.4-11.5-4.4-15.9,0l-28.6,28.6l-28.6-28.6
			c-4.4-4.4-11.5-4.4-15.9,0c-4.4,4.4-4.4,11.5,0,15.9l28.6,28.6l-28.6,28.6c-4.4,4.4-4.4,11.5,0,15.9c2.2,2.2,5.1,3.3,7.9,3.3
			c2.9,0,5.8-1.1,7.9-3.3l28.6-28.6l28.6,28.6c2.2,2.2,5.1,3.3,7.9,3.3c2.9,0,5.8-1.1,7.9-3.3c4.4-4.4,4.4-11.5,0-15.9L478.6,460.2z
			"/>
	</g>
</g>
</svg>
