<?xml version="1.0" encoding="utf-8"?>
<!-- Generator: Adobe Illustrator 24.1.2, SVG Export Plug-In . SVG Version: 6.00 Build 0)  -->
<svg version="1.1" id="Icons" xmlns="http://www.w3.org/2000/svg" xmlns:xlink="http://www.w3.org/1999/xlink" x="0px" y="0px"
	 viewBox="0 0 512 512" style="enable-background:new 0 0 512 512;" xml:space="preserve">
<path d="M494.9,324.3h-72.4c-13.1-54-44.6-101.8-89.1-135.2c10.2-9.7,10.6-25.8,0.8-36c-2.3-2.4-5-4.3-8-5.6l22.2-78.3
	c5.2-18.1-5.3-37-23.4-42.2c-3-0.9-6.2-1.3-9.4-1.3h-15.4C286.3,1.1,255-7.3,230.5,6.8c-7.8,4.5-14.3,11-18.8,18.8h-15.4
	c-18.8,0-34.1,15.3-34,34.2c0,3.1,0.4,6.3,1.3,9.3l22.2,78.4c-12.8,5.8-18.5,20.9-12.7,33.7c1.4,3,3.3,5.7,5.7,8
	c-44.4,33.5-75.8,81.2-89.1,135.2H25.6C11.5,324.2,0.1,335.6,0,349.6c0,6.4,2.3,12.6,6.7,17.3c-8.9,9.6-8.9,24.5,0,34.1
	c-9.5,10.3-8.8,26.4,1.6,35.8c1.2,1.1,2.4,2,3.7,2.8c-4.6,7.7-4.6,17.4,0,25.1C0,472.3-3.6,488.1,3.9,500c4.7,7.5,12.9,12,21.7,12
	h136.5c9.6,0,18.4-5.5,22.7-14c22.6,9.2,46.8,14,71.2,14h238.9c9.4,0,17.1-7.6,17.1-17.1V341.3C512,331.9,504.4,324.3,494.9,324.3z
	 M494.9,365.7c-11.9-3.1-21.3-12.4-24.4-24.4h24.4V365.7z M196.3,179.2c-4.7,0-8.5-3.8-8.5-8.5c0-4.7,3.8-8.5,8.5-8.5h119.5
	c4.7,0,8.5,3.8,8.5,8.5c0,4.7-3.8,8.5-8.5,8.5H196.3z M182.7,49.4c3.2-4.3,8.2-6.8,13.5-6.8h9.4c-0.5,2.8-0.7,5.7-0.8,8.5v34.1
	c0,4.7,3.8,8.5,8.5,8.5s8.5-3.8,8.5-8.5V51.2c0-4.7,1-9.3,2.8-13.7l0,0c7.5-17.3,27.6-25.2,44.9-17.7c7.9,3.4,14.2,9.8,17.7,17.7
	l0,0c1.9,4.3,2.9,9,2.9,13.7v34.1c0,4.7,3.8,8.5,8.5,8.5s8.5-3.8,8.5-8.5V51.2c0-2.9-0.3-5.7-0.8-8.5h9.4c9.4,0.1,17,7.8,16.9,17.2
	c0,1.5-0.2,3.1-0.7,4.5l-22.8,80.7H202.7l-22.8-80.7C178.4,59.2,179.4,53.7,182.7,49.4z M25.6,341.3h136.5c4.7,0,8.5,3.8,8.5,8.5
	c0,4.7-3.8,8.5-8.5,8.5H25.6c-4.7,0-8.5-3.8-8.5-8.5C17.1,345.2,20.9,341.3,25.6,341.3z M25.6,452.3c0-4.7,3.8-8.5,8.5-8.5h136.5
	c4.7,0,8.5,3.8,8.5,8.5s-3.8,8.5-8.5,8.5H34.1C29.4,460.8,25.6,457,25.6,452.3z M25.6,426.7c-4.7,0-8.5-3.8-8.5-8.5s3.8-8.5,8.5-8.5
	h136.5c4.7,0,8.5,3.8,8.5,8.5s-3.8,8.5-8.5,8.5H25.6z M17.1,384c0-4.7,3.8-8.5,8.5-8.5h136.5c4.7,0,8.5,3.8,8.5,8.5
	s-3.8,8.5-8.5,8.5H25.6C20.9,392.5,17.1,388.7,17.1,384z M162.1,494.9H25.6c-4.7,0-8.5-3.8-8.5-8.5s3.8-8.5,8.5-8.5h136.5
	c4.7,0,8.5,3.8,8.5,8.5S166.8,494.9,162.1,494.9z M186.9,480.2c-0.6-2.2-1.4-4.4-2.6-6.4c11.9-7.5,15.5-23.2,8.1-35.1
	c-2-3.3-4.8-6-8.1-8.1c5.6-9.5,4.2-21.5-3.2-29.6c8.9-9.6,8.9-24.5,0-34.1c9.5-10.4,8.7-26.5-1.7-36c-4.7-4.3-10.9-6.7-17.3-6.7
	h-55.2c12.6-50.2,50.5-103.5,91.8-128h114.6c52.4,31,96.3,104.7,96.3,162.1c0,75.3-68.9,136.5-153.6,136.5
	C232.2,494.9,208.6,489.9,186.9,480.2z M426.7,358.4c-0.1-5.7-0.4-11.4-1.2-17.1H453c3.7,21.4,20.5,38.2,41.9,41.9V453
	c-21.4,3.7-38.2,20.5-41.9,41.9H333.8C388.9,469.4,426.7,417.9,426.7,358.4z M470.5,494.9c3.1-11.9,12.4-21.3,24.4-24.4v24.4H470.5z
	"/>
<path d="M460.8,443.7c14.1,0,25.6-11.5,25.6-25.6c0-14.1-11.5-25.6-25.6-25.6c-14.1,0-25.6,11.5-25.6,25.6
	C435.2,432.3,446.7,443.7,460.8,443.7z M460.8,409.6c4.7,0,8.5,3.8,8.5,8.5s-3.8,8.5-8.5,8.5s-8.5-3.8-8.5-8.5
	S456.1,409.6,460.8,409.6z"/>
</svg>
