<svg id="line" viewBox="0 0 64 64" xmlns="http://www.w3.org/2000/svg"><g fill="rgb(0,0,0)"><g><path d="m17 55.5c-7.44385 0-13.5-6.05566-13.5-13.5v-18c0-2.48145 2.01855-4.5 4.5-4.5h36c2.48145 0 4.5 2.01855 4.5 4.5v7.2998c0 .82812-.67139 1.5-1.5 1.5s-1.5-.67188-1.5-1.5v-7.2998c0-.82715-.67285-1.5-1.5-1.5h-36c-.82715 0-1.5.67285-1.5 1.5v18c0 5.79004 4.71045 10.5 10.5 10.5l15-.00098c.82812 0 1.5.67188 1.5 1.5s-.67139 1.5-1.5 1.5z"/><path d="m37 44.5h-23c-2.48145 0-4.5-2.01855-4.5-4.5v-5c0-2.48145 2.01855-4.5 4.5-4.5h18c.82861 0 1.5.67188 1.5 1.5s-.67139 1.5-1.5 1.5h-18c-.82715 0-1.5.67285-1.5 1.5v5c0 .82715.67285 1.5 1.5 1.5h23c.82861 0 1.5.67188 1.5 1.5s-.67139 1.5-1.5 1.5z"/><g><circle cx="16.571" cy="37.5" r="1.571"/><circle cx="21.571" cy="37.5" r="1.571"/><circle cx="26.571" cy="37.5" r="1.571"/><circle cx="31.571" cy="37.5" r="1.571"/></g><path d="m40.5 22.5c-.82861 0-1.5-.67188-1.5-1.5v-1.5c0-7.16797-5.83154-13-13-13s-13 5.83203-13 13v1.5c0 .82812-.67139 1.5-1.5 1.5s-1.5-.67188-1.5-1.5v-1.5c0-8.82227 7.17773-16 16-16s16 7.17773 16 16v1.5c0 .82812-.67139 1.5-1.5 1.5z"/><path d="m34.5 22.5c-.82861 0-1.5-.67188-1.5-1.5v-1.5c0-3.85938-3.14014-7-7-7s-7 3.14062-7 7v1.5c0 .82812-.67139 1.5-1.5 1.5s-1.5-.67188-1.5-1.5v-1.5c0-5.51367 4.48584-10 10-10s10 4.48633 10 10v1.5c0 .82812-.67139 1.5-1.5 1.5z"/></g><g><path d="m48 60.5c-.24707 0-.49414-.06152-.71826-.18359l-7.87305-4.29395c-2.41113-1.31543-3.90869-3.83789-3.90869-6.58398v-15.1582c0-.66309.43555-1.24805 1.07129-1.4375l11-3.28027c.26807-.08008.55273-.08301.82324-.00977l11 2.99902c.65283.17773 1.10547.77051 1.10547 1.44727v15.43945c0 2.74609-1.49756 5.26855-3.90869 6.58398l-7.87305 4.29395c-.22412.12207-.47119.18359-.71826.18359zm-9.5-25.10156v14.04004c0 1.64746.89893 3.16113 2.34521 3.95117l7.15479 3.90137 7.15479-3.90137c1.44629-.79004 2.34521-2.30371 2.34521-3.95117v-14.29395l-9.48145-2.58496z"/><path d="m46.99951 48.50098c-.31494 0-.63135-.09863-.89941-.2998l-4-3c-.6626-.49707-.79736-1.4375-.30029-2.10059.49805-.66211 1.43848-.7959 2.1001-.2998l2.95947 2.21973 5.08008-5.08105c.58496-.58594 1.53516-.58594 2.12109 0s.58594 1.53516 0 2.12109l-6 6.00098c-.29053.29102-.6748.43945-1.06104.43945z"/></g></g></svg>